<svg xmlns="http://www.w3.org/2000/svg" xmlns:xlink="http://www.w3.org/1999/xlink" width="29" height="29" viewBox="0 0 29 29"><defs><style>.a,.c,.d{fill:#a6bfde;}.a,.d{stroke:#a6bfde;}.a{stroke-width:2px;}.b{clip-path:url(#a);}.d{stroke-width:0.16px;}</style><clipPath id="a"><rect class="a" width="29" height="29" transform="translate(29 195)"/></clipPath></defs><g class="b" transform="translate(-29 -195)"><g transform="translate(29.261 195)"><path class="c" d="M16.026,11.06a.4.4,0,0,0,.159-.323.411.411,0,0,0-.663-.323L13.05,12.34a.4.4,0,0,0-.159.323.413.413,0,0,0,.088.252.4.4,0,0,0,.323.159.413.413,0,0,0,.252-.088Z"/><path class="c" d="M18.439,11.488a.413.413,0,0,0-.088-.252.406.406,0,0,0-.575-.07l-4.238,3.3a.4.4,0,0,0-.159.323.413.413,0,0,0,.088.252.4.4,0,0,0,.323.159.413.413,0,0,0,.252-.088l4.238-3.3A.4.4,0,0,0,18.439,11.488Z"/><path class="d" d="M28.067,25.583H22.713A11.539,11.539,0,1,0,6.4,9.833a1.25,1.25,0,0,0-.358-.3V.869A.876.876,0,0,0,5.172,0H3.939a2.1,2.1,0,0,0-2.1,2.107V9.539A1.2,1.2,0,0,0,1.209,10.6V12.41A1.605,1.605,0,0,0,0,13.966v13.42A1.612,1.612,0,0,0,1.609,29H26.769a1.714,1.714,0,0,0,1.708-1.708v-1.3A.412.412,0,0,0,28.067,25.583ZM2.659,2.107A1.284,1.284,0,0,1,3.939.822H5.172a.051.051,0,0,1,.047.047V9.393H2.659ZM2.025,10.59a.378.378,0,0,1,.3-.37.39.39,0,0,1,.076-.006h3.07a.383.383,0,0,1,.376.382v.288h0v1.479H2.025Zm5.031,15.4v1.4a.787.787,0,0,1-.787.787H1.609a.787.787,0,0,1-.787-.787V13.966a.787.787,0,0,1,.787-.787H6.264a.8.8,0,0,1,.716.452A.609.609,0,0,1,7,13.69c0,.006.006.018.006.023s.012.041.018.059.006.012.006.023.006.041.012.065a.022.022,0,0,0,.006.018c0,.023.006.053.006.076v9.275h0v2.765Zm.1-13.367a.018.018,0,0,0-.012-.006.557.557,0,0,0-.1-.059.006.006,0,0,1-.006-.006L6.933,12.5a.022.022,0,0,0-.018-.006.784.784,0,0,0-.106-.041c-.006,0-.012-.006-.018-.006-.035-.012-.076-.023-.117-.035h0V10.989a10.711,10.711,0,1,1,14.482,14.6H17.541a9.54,9.54,0,0,0-1.5-18.962,9.427,9.427,0,0,0-5.694,1.89,9.674,9.674,0,0,0-3.164,4.133A.059.059,0,0,0,7.156,12.627Zm.722,10.461V21.075a9.548,9.548,0,0,0,6.681,4.509H10.937A10.719,10.719,0,0,1,7.878,23.088Zm1.509,2.495H7.878V24.3A11.219,11.219,0,0,0,9.387,25.583Zm-1.509-6.4V13.966a.951.951,0,0,0-.006-.129v-.018a.7.7,0,0,0-.018-.117.022.022,0,0,0-.006-.018c-.006-.041-.018-.082-.023-.117v-.006c-.012-.041-.023-.076-.035-.117,0-.006-.006-.012-.006-.018V13.42a8.714,8.714,0,1,1,.094,5.759Zm19.778,8.113h0a.889.889,0,0,1-.886.886H7.673a.006.006,0,0,1,.006-.006c.029-.053.059-.112.082-.164a.035.035,0,0,0,.006-.023c.006-.023.018-.041.023-.065.006-.006.006-.018.012-.023.006-.023.018-.047.023-.07,0-.006.006-.012.006-.018.006-.029.018-.059.023-.094a.022.022,0,0,1,.006-.018c.006-.023.006-.047.012-.076a.053.053,0,0,1,.006-.029c0-.023.006-.047.006-.07v-.029c0-.029.006-.065.006-.094h0v-.986H27.667l-.012.881Z"/></g></g></svg>