<svg xmlns="http://www.w3.org/2000/svg" width="22.072" height="29.323" viewBox="0 0 22.072 29.323"><defs><style>.a{fill:#a6bfde;}</style></defs><g transform="translate(-899.988 -253.145)"><path class="a" d="M915.421,273.062a.53.53,0,0,0,.323-.667l-.334-1.015a.531.531,0,0,0-.269-.309.5.5,0,0,0-.4-.024.536.536,0,0,0-.322.669l.336,1.014a.524.524,0,0,0,.5.364Z" transform="translate(0.522 0.644)"/><path class="a" d="M916.15,273.624a.524.524,0,0,0-.268-.31.5.5,0,0,0-.4-.023.536.536,0,0,0-.324.669l1.225,3.7a.523.523,0,0,0,.5.363l.171-.029a.535.535,0,0,0,.325-.669Z" transform="translate(0.535 0.594)"/><path class="a" d="M906.5,272.145a.5.5,0,0,0-.4.011.519.519,0,0,0-.279.3l-.944,2.577a.539.539,0,0,0,.307.679l.183.034a.52.52,0,0,0,.49-.346l.946-2.576A.536.536,0,0,0,906.5,272.145Z" transform="translate(0.173 0.66)"/><path class="a" d="M908.955,272.809a.528.528,0,0,0-.523.53v.746a.523.523,0,1,0,1.046,0v-.746A.528.528,0,0,0,908.955,272.809Z" transform="translate(0.309 0.713)"/><path class="a" d="M921.888,278.551a37.565,37.565,0,0,0-2.327-3.933l-.3-.466a29.845,29.845,0,0,1-2.367-4.139,10.794,10.794,0,0,1-.6-1.7,9.209,9.209,0,0,1-.246-1.391,3.126,3.126,0,0,1,.018-.649,2.85,2.85,0,0,1,.04-.413l.162-.954c.245-1.682.5-3.365.76-5.046a1.452,1.452,0,0,0-.164-.951,7.5,7.5,0,0,0-.757-1.034,5.04,5.04,0,0,1-.865-1.282v-2.95a.492.492,0,1,0-.984,0V256.5c-.215.224-.869.8-1.42,1.292-.662.586-1.346,1.188-1.812,1.639-.453-.44-1.144-1.05-1.815-1.642-.549-.486-1.2-1.062-1.418-1.289v-2.86a.491.491,0,1,0-.983,0v2.948a4.981,4.981,0,0,1-.868,1.285,7.341,7.341,0,0,0-.759,1.039,1.443,1.443,0,0,0-.162.943c.257,1.682.516,3.365.762,5.053l.164.965a3.578,3.578,0,0,1,.039.4h0v0c0,.017,0,.029,0,.048a2.947,2.947,0,0,1,.011.6,8.98,8.98,0,0,1-.244,1.387,10.991,10.991,0,0,1-.6,1.71,29.609,29.609,0,0,1-2.361,4.124l-.306.475a37.551,37.551,0,0,0-2.332,3.945,1.087,1.087,0,0,0,.587,1.637,24.645,24.645,0,0,0,8.432,2.19.423.423,0,0,0,.089.019c.013,0,.025-.007.038-.007.573.04,1.146.069,1.723.069a24.332,24.332,0,0,0,3.149-.213l.011,0,.086-.007c.014,0,.027-.012.04-.017a24.814,24.814,0,0,0,6.994-2.037l.008,0A1.089,1.089,0,0,0,921.888,278.551Zm-15.9-18.851a.472.472,0,0,1,.057-.327,6.947,6.947,0,0,1,.653-.882,10.345,10.345,0,0,0,.737-.972c.257.237.617.556,1.124,1,.7.621,1.5,1.327,1.919,1.751a.711.711,0,0,0,1.089,0c.416-.422,1.213-1.127,1.917-1.747.506-.447.866-.768,1.124-1a10.676,10.676,0,0,0,.735.971,7.062,7.062,0,0,1,.652.877.489.489,0,0,1,.059.335c-.258,1.686-.517,3.371-.761,5.052l-.161.948c0,.026,0,.047-.007.074H906.92c0-.027,0-.051-.007-.078l-.159-.94C906.508,263.074,906.249,261.389,905.991,259.7Zm9.242,8.239h-8.417c.058-.305.131-.606.162-.918.009-.092.007-.176.009-.263h8.073c0,.087,0,.176.01.257C915.1,267.327,915.174,267.633,915.233,267.939ZM920.9,279.3a24.354,24.354,0,0,1-2.27.9l-.3-.9a.512.512,0,0,0-.655-.329.523.523,0,0,0-.317.657l.283.857a23.686,23.686,0,0,1-3.027.673l-1.171-7.269a.525.525,0,0,0-.21-.342.513.513,0,0,0-.8.508l1.172,7.269a23.32,23.32,0,0,1-3.825.079v-4.671a.513.513,0,1,0-1.026,0v4.615a23.454,23.454,0,0,1-4.313-.854l1.1-3.007a.523.523,0,0,0-.295-.663.5.5,0,0,0-.394.008.515.515,0,0,0-.272.294l-1.13,3.081a23.958,23.958,0,0,1-2.29-.9c-.129-.061-.177-.1-.187-.1a.687.687,0,0,1,.074-.22,36.821,36.821,0,0,1,2.272-3.835l.306-.476a30.577,30.577,0,0,0,2.432-4.26,11.691,11.691,0,0,0,.542-1.491h8.859a11.742,11.742,0,0,0,.542,1.488,30.5,30.5,0,0,0,2.439,4.275l.3.467A37.1,37.1,0,0,1,921,278.972c.065.143.076.21.084.214A.627.627,0,0,1,920.9,279.3Z" transform="translate(0 0)"/></g></svg>