<svg xmlns="http://www.w3.org/2000/svg" xmlns:xlink="http://www.w3.org/1999/xlink" width="29" height="29" viewBox="0 0 29 29"><defs><style>.a{fill:#a6bfde;stroke:#a6bfde;stroke-width:0.2px;}.b{clip-path:url(#a);}</style><clipPath id="a"><rect class="a" width="29" height="29" transform="translate(29 458)"/></clipPath></defs><g class="b" transform="translate(-29 -458)"><path class="a" d="M26.277,15.538,16.4,7.163a.5.5,0,0,0-.306-.112l-.359.006a.461.461,0,0,0-.3.112L12.65,9.527,7.281.235a.468.468,0,0,0-.812,0L.065,11.321a.479.479,0,0,0,0,.47.467.467,0,0,0,.406.235H2.117L.059,15.585a.479.479,0,0,0,0,.47.467.467,0,0,0,.406.235H1.882L.059,19.449a.479.479,0,0,0,0,.47.467.467,0,0,0,.406.235H5.558v4.493H4.77a2.179,2.179,0,0,0-2.176,2.176V28.53a.472.472,0,0,0,.47.47H24.036a.472.472,0,0,0,.47-.47V26.824a2.177,2.177,0,0,0-1.647-2.111V15.985l1.382,1.17a1.506,1.506,0,0,0,.994.359,1.475,1.475,0,0,0,1.388-.847A1,1,0,0,0,26.277,15.538Zm-23.166.523a.479.479,0,0,0,0-.47.467.467,0,0,0-.406-.235H1.288L3.346,11.8a.479.479,0,0,0,0-.47.467.467,0,0,0-.406-.235H1.294L6.881,1.417l5.04,8.734L8.1,13.386,5.552,15.55A1,1,0,0,0,5.2,16.673a1.474,1.474,0,0,0,1.394.847h0a1.517,1.517,0,0,0,.994-.359l1.27-1.076.035,3.141h-7.6Zm5.787,4.1.053,4.493h-.77V20.161Zm-2.394,0h.741v4.493H6.5ZM23.566,26.83v1.235H3.54V26.83a1.235,1.235,0,0,1,1.235-1.235H22.343A1.232,1.232,0,0,1,23.566,26.83ZM14,24.654V20.631a1.847,1.847,0,0,1,3.693,0v4.023Zm7.916,0H18.637V20.631a2.788,2.788,0,0,0-5.575,0v4.023H9.892L9.833,19.7v-.018L9.78,15.291l6.128-5.2,6.011,5.093v9.469Zm3.317-8.081a.584.584,0,0,1-.382-.135L16.214,9.116a.471.471,0,0,0-.606,0L9.028,14.7a.156.156,0,0,1-.035.029L6.975,16.438a.584.584,0,0,1-.382.135h0a.6.6,0,0,1-.506-.229.318.318,0,0,1,.076-.088l2.552-2.164q3.6-3.052,7.2-6.1h.018l9.745,8.257a.318.318,0,0,1,.076.088A.633.633,0,0,1,25.236,16.573Z" transform="translate(30.16 458)"/></g></svg>