<svg xmlns="http://www.w3.org/2000/svg" xmlns:xlink="http://www.w3.org/1999/xlink" width="29" height="29" viewBox="0 0 29 29"><defs><style>.a{fill:#a6bfde;stroke:#a6bfde;stroke-width:0.5px;}.b{clip-path:url(#a);}</style><clipPath id="a"><rect class="a" width="29" height="29" transform="translate(29 372)"/></clipPath></defs><g class="b" transform="translate(-29 -372)"><g transform="translate(32.921 372)"><path class="a" d="M19.426,22.592a9.3,9.3,0,0,0,.468-2.917,9.625,9.625,0,0,0-.255-2.182,3.351,3.351,0,1,0-3.8-5.519,8.372,8.372,0,0,0-.818-.5,6.175,6.175,0,0,0,.96-7.291A2.53,2.53,0,0,0,14.067,0a2.507,2.507,0,0,0-2.122,1.15,6.278,6.278,0,0,0-2.739,0A2.507,2.507,0,0,0,7.084,0,2.53,2.53,0,0,0,5.169,4.185a6.175,6.175,0,0,0,.96,7.291q-.418.231-.818.5a3.353,3.353,0,1,0-3.806,5.519,9.264,9.264,0,0,0-.255,2.182,9.134,9.134,0,0,0,.468,2.917,3.35,3.35,0,1,0,4.15,5.134,9.329,9.329,0,0,0,9.414,0,3.352,3.352,0,0,0,5.875-2.211A3.389,3.389,0,0,0,19.426,22.592Zm1.008-7.89a2.65,2.65,0,0,1-1.375,2.318h-.006l-.142.071c-.006.006-.018.006-.024.012l-.119.053c-.012.006-.024.006-.03.012-.041.018-.083.03-.124.047-.006,0-.012.006-.018.006a2.6,2.6,0,0,1-.308.077.036.036,0,0,0-.024.006l-.13.018c-.012,0-.024.006-.036.006-.041.006-.083.006-.124.012h-.036a1.34,1.34,0,0,1-.154.006A2.646,2.646,0,0,1,15.14,14.7h0a1.142,1.142,0,0,1,.006-.142v-.036c0-.036.006-.065.006-.1,0-.018.006-.03.006-.047s.006-.059.012-.095c0-.018.006-.03.006-.047s.012-.059.018-.083.006-.036.012-.053.012-.053.018-.077.012-.041.018-.059.012-.041.018-.065.018-.047.024-.071l.018-.053a.465.465,0,0,0,.03-.083.084.084,0,0,0,.012-.036c.012-.03.03-.065.041-.095,0-.006.006-.006.006-.012A2.658,2.658,0,0,1,20.434,14.7ZM5.9,4.327a.361.361,0,0,0-.059-.451,1.8,1.8,0,0,1-.587-1.34,1.821,1.821,0,0,1,3.45-.812.348.348,0,0,0,.409.184,5.489,5.489,0,0,1,2.9,0,.349.349,0,0,0,.409-.184A1.8,1.8,0,0,1,14.061.717a1.824,1.824,0,0,1,1.82,1.82,1.8,1.8,0,0,1-.587,1.34.359.359,0,0,0-.059.451,5.477,5.477,0,0,1-2.14,7.73.647.647,0,0,0-.065.036,1.185,1.185,0,0,1-.124.059c-.041.018-.089.041-.13.059a.615.615,0,0,1-.059.024c-.065.024-.124.053-.19.077-.012.006-.024.006-.036.012-.071.024-.142.053-.213.071-.006,0-.006,0-.012.006a5.653,5.653,0,0,1-.948.219h-.006c-.077.012-.154.018-.231.024h-.024l-.225.018h-.024c-.077.006-.154.006-.231.006h0c-.077,0-.154,0-.231-.006h-.024c-.077-.006-.154-.006-.225-.018h-.018c-.077-.006-.16-.018-.237-.03h0a5.126,5.126,0,0,1-.948-.219H8.886c-.071-.024-.142-.047-.213-.077-.012-.006-.018-.006-.03-.012-.065-.024-.13-.053-.2-.077a.211.211,0,0,1-.053-.024,1.516,1.516,0,0,1-.142-.065l-.113-.053a.49.49,0,0,1-.077-.041c-.065-.036-.136-.071-.2-.107h0A5.484,5.484,0,0,1,5.11,7.191,5.351,5.351,0,0,1,5.9,4.327ZM.705,14.7a2.638,2.638,0,0,1,5.015-1.15.006.006,0,0,0,.006.006.659.659,0,0,1,.041.095.1.1,0,0,1,.012.03.465.465,0,0,1,.03.083.408.408,0,0,0,.018.047c.006.024.018.047.024.071s.012.041.018.065.012.041.018.059.012.053.018.077.006.036.012.053l.018.089c0,.018.006.03.006.047s.006.059.012.095c0,.018.006.03.006.047a.575.575,0,0,1,.006.1v.041c0,.047.006.095.006.142h0a2.646,2.646,0,0,1-2.644,2.644,1.34,1.34,0,0,1-.154-.006H3.136a.73.73,0,0,1-.119-.012c-.012,0-.024-.006-.036-.006L2.857,17.3c-.006,0-.018-.006-.024-.006a2.826,2.826,0,0,1-.3-.077c-.012,0-.018-.006-.03-.012a.864.864,0,0,1-.113-.041l-.041-.018c-.036-.012-.065-.03-.1-.041l-.041-.018c-.047-.024-.089-.041-.13-.065A2.659,2.659,0,0,1,.705,14.7ZM3.343,28.164a2.643,2.643,0,0,1-.913-5.122c.024-.006.047-.018.071-.024L2.549,23a2.586,2.586,0,0,1,.794-.124A2.646,2.646,0,0,1,5.987,25.52a.876.876,0,0,1-.006.124v.03c0,.036-.006.071-.006.107V25.8A2.652,2.652,0,0,1,3.343,28.164ZM14.862,27.15a8.622,8.622,0,0,1-8.584,0,3.367,3.367,0,0,0,.4-1.286h0a1.453,1.453,0,0,0,.012-.16V25.68c0-.053.006-.107.006-.16a3.36,3.36,0,0,0-3.355-3.355h0a1.34,1.34,0,0,0-.154.006H3.142c-.036,0-.077.006-.113.006a.131.131,0,0,0-.047.006L2.84,22.2c-.018,0-.03.006-.047.006l-.095.018c-.024.006-.041.006-.065.012l-.083.018-.059.018-.124.036a8.57,8.57,0,0,1-.409-2.632,8.733,8.733,0,0,1,.2-1.844c.006,0,.012.006.018.006a.521.521,0,0,0,.089.03c.018.006.036.012.059.018s.065.018.1.03a.183.183,0,0,0,.047.012.689.689,0,0,0,.107.024c.018.006.03.006.047.012.036.006.071.018.107.024.018.006.036.006.053.012l.1.018c.018,0,.041.006.059.006s.065.006.095.012.053.006.077.006.053.006.077.006c.047,0,.089.006.136.006h.024A3.36,3.36,0,0,0,6.7,14.7h0A1.609,1.609,0,0,0,6.7,14.53a.2.2,0,0,0-.006-.059c0-.036-.006-.065-.006-.1s-.006-.047-.006-.071-.006-.059-.012-.089-.006-.053-.012-.077a.4.4,0,0,1-.012-.083c-.006-.024-.012-.047-.018-.077s-.012-.053-.018-.083l-.018-.071c-.006-.03-.018-.059-.024-.089s-.012-.036-.018-.059l-.036-.107c-.006-.012-.006-.024-.012-.036-.018-.047-.036-.095-.053-.136v-.006a3.424,3.424,0,0,0-.581-.925c.267-.172.539-.332.824-.48a6.317,6.317,0,0,0,1.18.753c.036.018.071.036.1.047s.065.03.095.047c.059.024.119.053.172.077a.408.408,0,0,1,.047.018c.071.03.142.053.213.083.006,0,.012.006.024.006a5.877,5.877,0,0,0,1.512.326h.024l.243.018h.036c.083.006.16.006.243.006h0c.083,0,.16,0,.243-.006h.036c.083-.006.16-.006.237-.018h.024a6.355,6.355,0,0,0,1.512-.326c.006-.006.018-.006.024-.012.071-.024.142-.053.213-.083a.211.211,0,0,0,.053-.024l.166-.071c.036-.018.071-.03.107-.047s.065-.03.095-.047a6.209,6.209,0,0,0,1.18-.753,7.647,7.647,0,0,1,.824.48,3.335,3.335,0,0,0-.581.925v.006c-.018.047-.036.095-.053.136-.006.012-.006.024-.012.036l-.036.107-.018.053a.444.444,0,0,0-.024.095c-.006.024-.012.047-.018.065s-.012.059-.018.083l-.018.071c-.006.03-.012.053-.018.083s-.006.047-.012.077-.006.059-.012.089-.006.047-.006.071a.575.575,0,0,0-.006.1c0,.018-.006.041-.006.059,0,.053-.006.107-.006.166h0a3.36,3.36,0,0,0,3.355,3.355h.024a1.049,1.049,0,0,0,.136-.006c.03,0,.053-.006.083-.006s.053-.006.077-.006.065-.006.095-.012.041-.006.059-.006l.107-.018c.018,0,.036-.006.047-.006a.689.689,0,0,0,.107-.024c.012-.006.03-.006.041-.012a.717.717,0,0,0,.107-.03c.012-.006.03-.006.041-.012.036-.012.071-.018.107-.03l.047-.018.095-.036c.006,0,.006,0,.012-.006a8.733,8.733,0,0,1,.2,1.844,8.57,8.57,0,0,1-.409,2.632l-.124-.036-.065-.018-.083-.018a.252.252,0,0,0-.065-.012l-.095-.018c-.018,0-.036-.006-.053-.006l-.142-.018a.131.131,0,0,1-.047-.006.717.717,0,0,0-.113-.006h-.047c-.053,0-.1-.006-.154-.006h0A3.36,3.36,0,0,0,14.435,25.5V25.5a1.239,1.239,0,0,0,.006.148v.036a1.349,1.349,0,0,0,.012.154v.012A3.47,3.47,0,0,0,14.862,27.15ZM17.8,28.164A2.646,2.646,0,0,1,15.17,25.8v-.03c0-.03-.006-.059-.006-.095v-.16a2.646,2.646,0,0,1,2.644-2.644h.012a2.577,2.577,0,0,1,.788.124c.012.006.024.006.036.012.03.012.053.018.083.03a2.643,2.643,0,0,1-.931,5.122Z"/><path class="a" d="M7.594,7.179A1.156,1.156,0,1,0,6.438,6.023,1.157,1.157,0,0,0,7.594,7.179Zm0-1.6a.445.445,0,1,1-.445.445A.448.448,0,0,1,7.594,5.578Z"/><path class="a" d="M13.546,7.179a1.156,1.156,0,1,0-1.162-1.156A1.157,1.157,0,0,0,13.546,7.179Zm0-1.6a.445.445,0,1,1-.451.445A.448.448,0,0,1,13.546,5.578Z"/><path class="a" d="M8.276,8.779a2.294,2.294,0,0,0,4.588,0,.356.356,0,1,0-.711,0c0,.243-.628.617-1.583.617s-1.583-.368-1.583-.617a.356.356,0,1,0-.711,0Zm3.332,1.192a1.579,1.579,0,0,1-2.081,0,3.8,3.8,0,0,0,1.043.136A4.268,4.268,0,0,0,11.607,9.971Z"/><path class="a" d="M10.57,15.692a1.156,1.156,0,1,0,1.156,1.156A1.163,1.163,0,0,0,10.57,15.692Zm0,1.6a.445.445,0,1,1,0-.889.445.445,0,1,1,0,.889Z"/><path class="a" d="M10.57,18.952a1.156,1.156,0,1,0,1.156,1.156A1.163,1.163,0,0,0,10.57,18.952Zm0,1.606a.445.445,0,1,1,0-.889.445.445,0,1,1,0,.889Z"/><path class="a" d="M10.57,22.218a1.156,1.156,0,1,0,1.156,1.156A1.163,1.163,0,0,0,10.57,22.218Zm0,1.6a.445.445,0,1,1,0-.889.445.445,0,1,1,0,.889Z"/></g></g></svg>