<svg xmlns="http://www.w3.org/2000/svg" width="142.786" height="43.442" viewBox="0 0 142.786 43.442"><defs><style>.a{fill:#fff;}</style></defs><g transform="translate(0 0)"><path class="a" d="M0,9.79H9.789S4.284,6.731,6.729,0C4.284,7.954,0,9.79,0,9.79Z" transform="translate(0 33.651)"/><path class="a" d="M11.625,43.439s2.446-2.446.611-6.73S0,7.342,0,7.342L3.671,0,18.355,37.322s2.446,6.117,4.894,6.117Z" transform="translate(15.908)"/><path class="a" d="M0,4.9S3.059,2.447,3.059,0A43.5,43.5,0,0,1,7.342,4.9Z" transform="translate(67.302 38.546)"/><path class="a" d="M7.342,4.9S4.283,2.447,4.283,0A43.557,43.557,0,0,0,0,4.9Z" transform="translate(70.973 38.546)"/><rect class="a" width="4.895" height="43.44" transform="translate(70.361 0)"/><path class="a" d="M0,0S3.058,2.445,3.058,4.894A43.561,43.561,0,0,0,7.342,0Z" transform="translate(112.578)"/><rect class="a" width="4.895" height="43.44" transform="translate(115.637 0)"/><path class="a" d="M0,0V8.565S1.836,0,9.177,0Z" transform="translate(53.842)"/><path class="a" d="M9.179,0V8.565S7.342,0,0,0Z" transform="translate(82.598)"/><g transform="translate(125.814)"><path class="a" d="M1.447,0C.956,0,.474.025,0,.069,4.429.653,7.873,5.052,7.873,10.4S4.429,20.149,0,20.732c.474.043.956.069,1.447.069,7.1,0,12.848-4.657,12.848-10.4S8.542,0,1.447,0Z"/></g><g transform="translate(127.65 21.414)"><path class="a" d="M1.532,0C1.013,0,.5.028,0,.073,4.689.692,8.334,5.35,8.334,11.012S4.689,21.334,0,21.951c.5.047,1.013.075,1.532.075,7.514,0,13.6-4.931,13.6-11.013S9.046,0,1.532,0Z"/></g></g></svg>