<svg xmlns="http://www.w3.org/2000/svg" width="122.875" height="37.383" viewBox="0 0 122.875 37.383"><defs><style>.a{fill:#acc2e0;}</style></defs><path class="a" d="M7850,7679.02h8.424a6.7,6.7,0,0,1-2.633-8.423C7853.688,7677.44,7850,7679.02,7850,7679.02Z" transform="translate(-7850.001 -7641.638)"/><path class="a" d="M7929.636,7560.682s2.1-2.105.526-5.792-10.531-25.272-10.531-25.272l3.159-6.318,12.637,32.118s2.1,5.264,4.211,5.264Z" transform="translate(-7905.941 -7523.3)"/><path class="a" d="M8144.591,7696.233s2.633-2.107,2.633-4.213a37.544,37.544,0,0,1,3.686,4.213Z" transform="translate(-8086.675 -7658.85)"/><path class="a" d="M8166.977,7696.233s-2.632-2.107-2.632-4.213a37.565,37.565,0,0,0-3.687,4.213Z" transform="translate(-8099.583 -7658.85)"/><rect class="a" width="4.212" height="37.382" transform="translate(60.549 0)"/><path class="a" d="M8342.771,7523.3s2.632,2.1,2.632,4.212a37.4,37.4,0,0,0,3.687-4.212Z" transform="translate(-8245.892 -7523.3)"/><rect class="a" width="4.212" height="37.382" transform="translate(99.511 0)"/><path class="a" d="M8085.673,7523.3v7.371s1.581-7.371,7.9-7.371Z" transform="translate(-8039.339 -7523.3)"/><path class="a" d="M8219.442,7523.3v7.371s-1.582-7.371-7.9-7.371Z" transform="translate(-8140.464 -7523.3)"/><g transform="translate(108.268)"><path class="a" d="M8401.953,7523.3c-.421,0-.835.022-1.244.06,3.811.5,6.773,4.288,6.773,8.89s-2.963,8.389-6.773,8.891c.409.037.823.06,1.244.06,6.106,0,11.058-4.007,11.058-8.95S8408.06,7523.3,8401.953,7523.3Z" transform="translate(-8400.709 -7523.3)"/></g><g transform="translate(109.848 18.428)"><path class="a" d="M8410.063,7617.034c-.447,0-.886.025-1.319.063,4.035.532,7.172,4.542,7.172,9.413s-3.137,8.882-7.172,9.414c.434.04.872.064,1.319.064,6.466,0,11.707-4.244,11.707-9.478S8416.528,7617.034,8410.063,7617.034Z" transform="translate(-8408.743 -7617.034)"/></g></svg>