<svg xmlns="http://www.w3.org/2000/svg" width="121.288" height="43.741" viewBox="0 0 121.288 43.741"><defs><style>.a{fill:#737373;}</style></defs><g transform="translate(0)"><path class="a" d="M7850,7680.453h8.314s-4.676-3.08-2.6-9.856C7853.64,7678.6,7850,7680.453,7850,7680.453Z" transform="translate(-7850.002 -7636.712)"/><path class="a" d="M7929.507,7567.04s2.078-2.463.519-6.776-10.4-29.571-10.4-29.571l3.119-7.392,12.474,37.579s2.078,6.16,4.157,6.16Z" transform="translate(-7906.118 -7523.301)"/><path class="a" d="M8144.591,7696.949s2.6-2.465,2.6-4.93a42.858,42.858,0,0,1,3.638,4.93Z" transform="translate(-8087.422 -7653.208)"/><path class="a" d="M8166.9,7696.949s-2.6-2.465-2.6-4.93a42.806,42.806,0,0,0-3.639,4.93Z" transform="translate(-8100.373 -7653.208)"/><rect class="a" width="4.158" height="43.741" transform="translate(59.767 0)"/><path class="a" d="M8342.771,7523.3s2.6,2.462,2.6,4.927a42.805,42.805,0,0,0,3.639-4.927Z" transform="translate(-8247.144 -7523.301)"/><rect class="a" width="4.158" height="43.741" transform="translate(98.226 0)"/><path class="a" d="M8085.673,7523.3v8.624s1.56-8.624,7.8-8.624Z" transform="translate(-8039.938 -7523.301)"/><path class="a" d="M8219.341,7523.3v8.624s-1.562-8.624-7.8-8.624Z" transform="translate(-8141.382 -7523.301)"/><g transform="translate(106.871)"><path class="a" d="M8401.938,7523.3a11.312,11.312,0,0,0-1.229.069c3.761.587,6.687,5.017,6.687,10.4s-2.926,9.816-6.687,10.4a11.563,11.563,0,0,0,1.229.07,10.482,10.482,0,1,0,0-20.945Z" transform="translate(-8400.709 -7523.301)"/></g><g transform="translate(108.43 21.563)"><path class="a" d="M8410.046,7617.033a12.428,12.428,0,0,0-1.3.074c3.982.622,7.079,5.314,7.079,11.015s-3.1,10.393-7.079,11.015a11.918,11.918,0,0,0,1.3.075,11.1,11.1,0,1,0,0-22.179Z" transform="translate(-8408.744 -7617.033)"/></g></g></svg>