<svg xmlns="http://www.w3.org/2000/svg" xmlns:xlink="http://www.w3.org/1999/xlink" width="29" height="29" viewBox="0 0 29 29"><defs><style>.a{fill:#a6bfde;stroke:#fff;stroke-width:0.5px;}.b{clip-path:url(#a);}</style><clipPath id="a"><rect class="a" width="29" height="29" transform="translate(207 458)"/></clipPath></defs><g class="b" transform="translate(-207 -458)"><g transform="translate(207 458)"><path class="a" d="M29,5.51A5.511,5.511,0,0,0,18.264,3.758a5.5,5.5,0,0,0-7.505.081,5.509,5.509,0,1,0-6.67,6.995L2.975,12.76a.864.864,0,0,0,0,.87.874.874,0,0,0,.754.435H4.64V25.81a.87.87,0,0,0,1.74,0V14.065h.87a.868.868,0,0,0,.731-1.34L6.9,10.846A5.49,5.49,0,0,0,9.309,9.5a5.53,5.53,0,0,0,3.834,3.654L12.023,15.08a.864.864,0,0,0,0,.87.874.874,0,0,0,.754.435h.911V28.13a.87.87,0,1,0,1.74,0V16.385h.87a.868.868,0,0,0,.731-1.34l-1.085-1.879a5.536,5.536,0,0,0,3.84-3.579,5.539,5.539,0,0,0,2.291,1.253l-1.119,1.92a.864.864,0,0,0,0,.87.874.874,0,0,0,.754.435h.911V25.81a.87.87,0,0,0,1.74,0V14.065h.87a.868.868,0,0,0,.731-1.34l-1.085-1.879A5.532,5.532,0,0,0,29,5.51ZM5.237,12.325l.249-.435.255.435ZM5.51,9.28A3.77,3.77,0,1,1,9.28,5.51,3.777,3.777,0,0,1,5.51,9.28Zm8.775,5.365.255-.435.255.435Zm.273-3.045a3.77,3.77,0,1,1,3.5-5.168,5.377,5.377,0,0,0,.238.922,4.379,4.379,0,0,1,.029.481A3.767,3.767,0,0,1,14.558,11.6Zm8.659.725.255-.435.255.435ZM23.49,9.28a3.768,3.768,0,0,1-3.5-2.372,5.376,5.376,0,0,0-.238-.922,4.379,4.379,0,0,1-.029-.481A3.77,3.77,0,1,1,23.49,9.28Z"/><path class="a" d="M19.14,20.3a2.32,2.32,0,1,0,2.32,2.32A2.319,2.319,0,0,0,19.14,20.3Zm0,2.9a.58.58,0,1,1,.58-.58A.582.582,0,0,1,19.14,23.2Z"/><path class="a" d="M9.28,17.4a2.32,2.32,0,1,0,2.32,2.32A2.319,2.319,0,0,0,9.28,17.4Zm0,2.9a.58.58,0,1,1,.58-.58A.582.582,0,0,1,9.28,20.3Z"/></g></g></svg>